<svg xmlns="http://www.w3.org/2000/svg" xmlns:xlink="http://www.w3.org/1999/xlink" width="500" zoomAndPan="magnify" viewBox="0 0 375 374.999991" height="500" preserveAspectRatio="xMidYMid meet" version="1.0"><defs><g/></defs><g fill="#745bf5" fill-opacity="1"><g transform="translate(7.055573, 336.386155)"><g><path d="M 177.953125 -245.140625 L 169.5 -194.078125 L 123.21875 -194.078125 L 103.421875 -75.328125 C 101.828125 -65.960938 102.914062 -59.628906 106.6875 -56.328125 C 110.46875 -53.035156 115.765625 -51.390625 122.578125 -51.390625 C 125.765625 -51.390625 129.003906 -51.679688 132.296875 -52.265625 C 135.597656 -52.847656 138.101562 -53.300781 139.8125 -53.625 L 142.359375 -3.03125 C 138.535156 -1.863281 133.429688 -0.5625 127.046875 0.875 C 120.660156 2.3125 113.050781 3.140625 104.21875 3.359375 C 79.21875 4.304688 60.222656 -1.09375 47.234375 -12.84375 C 34.253906 -24.601562 29.894531 -42.453125 34.15625 -66.390625 L 55.21875 -194.078125 L 21.703125 -194.078125 L 30.328125 -245.140625 L 63.6875 -245.140625 L 73.421875 -303.875 L 141.40625 -303.875 L 131.671875 -245.140625 Z M 177.953125 -245.140625 "/></g></g></g><g fill="#745bf5" fill-opacity="1"><g transform="translate(193.341776, 336.386155)"><g><path d="M 177.953125 -245.140625 L 169.5 -194.078125 L 123.21875 -194.078125 L 103.421875 -75.328125 C 101.828125 -65.960938 102.914062 -59.628906 106.6875 -56.328125 C 110.46875 -53.035156 115.765625 -51.390625 122.578125 -51.390625 C 125.765625 -51.390625 129.003906 -51.679688 132.296875 -52.265625 C 135.597656 -52.847656 138.101562 -53.300781 139.8125 -53.625 L 142.359375 -3.03125 C 138.535156 -1.863281 133.429688 -0.5625 127.046875 0.875 C 120.660156 2.3125 113.050781 3.140625 104.21875 3.359375 C 79.21875 4.304688 60.222656 -1.09375 47.234375 -12.84375 C 34.253906 -24.601562 29.894531 -42.453125 34.15625 -66.390625 L 55.21875 -194.078125 L 21.703125 -194.078125 L 30.328125 -245.140625 L 63.6875 -245.140625 L 73.421875 -303.875 L 141.40625 -303.875 L 131.671875 -245.140625 Z M 177.953125 -245.140625 "/></g></g></g></svg>